<svg width="25" height="24" viewBox="0 0 25 24" fill="none" xmlns="http://www.w3.org/2000/svg">
<path d="M11.7337 12.06C12.2205 12.54 12.8862 12.54 13.373 12.06L19.6523 5.78L20.8147 4.61C20.3776 4.38 19.8907 4.25 19.3641 4.25H5.74259C5.21601 4.25 4.72917 4.38 4.29201 4.61L5.45446 5.78L11.7337 12.06Z" fill="#FF1E57"/>
<path d="M9.49821 11.9401L4.27214 6.70011L3.17924 5.61011C2.82156 6.12011 2.62285 6.73011 2.62285 7.40011V16.6001C2.62285 17.1601 2.77188 17.6901 3.02027 18.1401C3.0302 18.1301 3.03021 18.1301 3.04014 18.1201L4.17279 17.0301L9.49821 11.9401Z" fill="#FF1E57"/>
<path d="M14.6249 12.9199L14.4262 13.1199C13.8897 13.6499 13.224 13.9199 12.5484 13.9199C11.8827 13.9199 11.217 13.6499 10.6805 13.1199L10.5514 12.9899L5.18621 18.1499L4.07343 19.2099C4.0635 19.2199 4.05356 19.2299 4.04362 19.2299C4.53046 19.5599 5.10672 19.7499 5.7426 19.7499H19.3641C19.9901 19.7499 20.5763 19.5599 21.0631 19.2299L19.9503 18.1399L14.6249 12.9199Z" fill="#FF1E57"/>
<path d="M21.9374 5.61011L20.8445 6.70011L15.6781 11.8601L20.9439 17.0301L22.0865 18.1501C22.3448 17.7001 22.4938 17.1601 22.4938 16.6001V7.40011C22.4938 6.73011 22.2951 6.12011 21.9374 5.61011Z" fill="#FF1E57"/>
</svg>
