<svg width="25" height="24" viewBox="0 0 25 24" fill="none" xmlns="http://www.w3.org/2000/svg">
<path d="M11.684 11.17L14.7839 9.76001L13.4128 12.83L10.2831 14.32L11.684 11.17Z" fill="white"/>
<path d="M12.5484 4C7.07394 4 2.61291 8.49 2.61291 14C2.61291 19.51 7.07394 24 12.5484 24C18.0228 24 22.4839 19.51 22.4839 14C22.4839 8.49 18.0228 4 12.5484 4ZM16.2245 12.17L14.7243 15.49C14.5852 15.8 14.3368 16.05 14.0288 16.19L10.7302 17.7C10.5414 17.79 10.3427 17.83 10.144 17.83C9.77639 17.83 9.42865 17.69 9.15046 17.42C8.73317 17 8.62388 16.37 8.87227 15.83L10.3725 12.51C10.5116 12.2 10.76 11.95 11.068 11.81L14.3666 10.3C14.9031 10.05 15.529 10.16 15.9463 10.58C16.3636 11 16.4729 11.63 16.2245 12.17Z" fill="#FF1E57"/>
</svg>
